ply
format ascii 1.0
comment Created by Blender 2.66 (sub 1) - www.blender.org, source file: 'cube.blend'
element vertex 84
property float x
property float y
property float z
property float nx
property float ny
property float nz
element face 26
property list uchar uint vertex_indices
end_header
0.400000 0.900000 -0.500000 0.000000 0.000000 -1.000000
0.400000 0.100000 -0.500000 0.000000 0.000000 -1.000000
-0.400000 0.100000 -0.500000 0.000000 0.000000 -1.000000
-0.400000 0.900000 -0.500000 0.000000 0.000000 -1.000000
0.400000 0.900000 0.500000 0.000000 -0.000000 1.000000
-0.400000 0.900000 0.500000 0.000000 -0.000000 1.000000
-0.400000 0.100000 0.500000 0.000000 -0.000000 1.000000
0.400000 0.100000 0.500000 0.000000 -0.000000 1.000000
0.500000 1.000000 0.333333 0.857493 -0.000000 0.514496
0.400000 0.900000 0.500000 0.857493 -0.000000 0.514496
0.400000 0.100000 0.500000 0.857493 -0.000000 0.514496
0.500000 -0.000000 0.333333 0.857493 -0.000000 0.514496
0.500000 -0.000000 0.333333 -0.000000 -0.857493 0.514496
0.400000 0.100000 0.500000 -0.000000 -0.857493 0.514496
-0.400000 0.100000 0.500000 -0.000000 -0.857493 0.514496
-0.500000 0.000000 0.333333 -0.000000 -0.857493 0.514496
-0.500000 0.000000 0.333333 -0.857493 0.000000 0.514496
-0.400000 0.100000 0.500000 -0.857493 0.000000 0.514496
-0.400000 0.900000 0.500000 -0.857493 0.000000 0.514496
-0.500000 1.000000 0.333333 -0.857493 0.000000 0.514496
0.500000 1.000000 -0.333333 0.000000 0.857493 -0.514495
0.400000 0.900000 -0.500000 0.000000 0.857493 -0.514495
-0.400000 0.900000 -0.500000 0.000000 0.857493 -0.514495
-0.500000 1.000000 -0.333333 0.000000 0.857493 -0.514495
0.400000 0.900000 -0.500000 0.857493 -0.000000 -0.514496
0.500000 1.000000 -0.333333 0.857493 -0.000000 -0.514496
0.500000 0.000000 -0.333333 0.857493 -0.000000 -0.514496
0.400000 0.100000 -0.500000 0.857493 -0.000000 -0.514496
0.500000 1.000000 -0.333333 1.000000 -0.000000 -0.000000
0.500000 1.000000 -0.166667 1.000000 -0.000000 -0.000000
0.500000 0.000000 -0.166667 1.000000 -0.000000 -0.000000
0.500000 0.000000 -0.333333 1.000000 -0.000000 -0.000000
0.500000 1.000000 0.000000 1.000000 -0.000000 0.000000
0.500000 -0.000000 0.000000 1.000000 -0.000000 0.000000
0.500000 1.000000 0.166667 1.000000 -0.000000 0.000000
0.500000 -0.000000 0.166667 1.000000 -0.000000 0.000000
0.500000 1.000000 0.333333 1.000000 -0.000000 -0.000000
0.500000 -0.000000 0.333333 1.000000 -0.000000 -0.000000
0.400000 0.100000 -0.500000 -0.000000 -0.857493 -0.514495
0.500000 0.000000 -0.333333 -0.000000 -0.857493 -0.514495
-0.500000 0.000000 -0.333333 -0.000000 -0.857493 -0.514495
-0.400000 0.100000 -0.500000 -0.000000 -0.857493 -0.514495
0.500000 0.000000 -0.333333 -0.000000 -1.000000 -0.000000
0.500000 0.000000 -0.166667 -0.000000 -1.000000 -0.000000
-0.500000 0.000000 -0.166667 -0.000000 -1.000000 -0.000000
-0.500000 0.000000 -0.333333 -0.000000 -1.000000 -0.000000
0.500000 0.000000 -0.166667 -0.000000 -1.000000 -0.000001
0.500000 -0.000000 0.000000 -0.000000 -1.000000 -0.000001
-0.500000 0.000000 0.000000 -0.000000 -1.000000 -0.000001
-0.500000 0.000000 -0.166667 -0.000000 -1.000000 -0.000001
0.500000 -0.000000 0.000000 -0.000000 -1.000000 -0.000000
0.500000 -0.000000 0.166667 -0.000000 -1.000000 -0.000000
-0.500000 0.000000 0.166667 -0.000000 -1.000000 -0.000000
-0.500000 0.000000 0.000000 -0.000000 -1.000000 -0.000000
0.500000 -0.000000 0.333333 -0.000000 -1.000000 -0.000000
-0.500000 0.000000 0.333333 -0.000000 -1.000000 -0.000000
-0.400000 0.100000 -0.500000 -0.857493 0.000000 -0.514496
-0.500000 0.000000 -0.333333 -0.857493 0.000000 -0.514496
-0.500000 1.000000 -0.333333 -0.857493 0.000000 -0.514496
-0.400000 0.900000 -0.500000 -0.857493 0.000000 -0.514496
-0.500000 0.000000 -0.333333 -1.000000 0.000000 -0.000000
-0.500000 0.000000 -0.166667 -1.000000 0.000000 -0.000000
-0.500000 1.000000 -0.166667 -1.000000 0.000000 -0.000000
-0.500000 1.000000 -0.333333 -1.000000 0.000000 -0.000000
-0.500000 0.000000 0.000000 -1.000000 0.000000 -0.000000
-0.500000 1.000000 0.000000 -1.000000 0.000000 -0.000000
-0.500000 0.000000 0.166667 -1.000000 0.000000 -0.000000
-0.500000 1.000000 0.166667 -1.000000 0.000000 -0.000000
-0.500000 0.000000 0.333333 -1.000000 0.000000 0.000000
-0.500000 1.000000 0.333333 -1.000000 0.000000 0.000000
0.400000 0.900000 0.500000 0.000000 0.857493 0.514496
0.500000 1.000000 0.333333 0.000000 0.857493 0.514496
-0.500000 1.000000 0.333333 0.000000 0.857493 0.514496
-0.400000 0.900000 0.500000 0.000000 0.857493 0.514496
0.500000 1.000000 0.333333 0.000000 1.000000 0.000000
0.500000 1.000000 0.166667 0.000000 1.000000 0.000000
-0.500000 1.000000 0.166667 0.000000 1.000000 0.000000
-0.500000 1.000000 0.333333 0.000000 1.000000 0.000000
0.500000 1.000000 0.000000 0.000000 1.000000 0.000000
-0.500000 1.000000 0.000000 0.000000 1.000000 0.000000
0.500000 1.000000 -0.166667 0.000000 1.000000 0.000000
-0.500000 1.000000 -0.166667 0.000000 1.000000 0.000000
0.500000 1.000000 -0.333333 0.000000 1.000000 0.000000
-0.500000 1.000000 -0.333333 0.000000 1.000000 0.000000
4 0 1 2 3
4 4 5 6 7
4 8 9 10 11
4 12 13 14 15
4 16 17 18 19
4 20 21 22 23
4 24 25 26 27
4 28 29 30 31
4 29 32 33 30
4 32 34 35 33
4 34 36 37 35
4 38 39 40 41
4 42 43 44 45
4 46 47 48 49
4 50 51 52 53
4 51 54 55 52
4 56 57 58 59
4 60 61 62 63
4 61 64 65 62
4 64 66 67 65
4 66 68 69 67
4 70 71 72 73
4 74 75 76 77
4 75 78 79 76
4 78 80 81 79
4 80 82 83 81
